<svg width="469" height="469" viewBox="0 0 469 469" fill="none" xmlns="http://www.w3.org/2000/svg">
<path d="M430.006 351.988C414.126 335.988 375.666 312.638 357.006 303.228C332.706 290.988 330.706 289.988 311.606 304.178C298.866 313.648 290.396 322.108 275.486 318.928C260.576 315.748 228.176 297.818 199.806 269.538C171.436 241.258 152.466 207.918 149.276 193.058C146.086 178.198 154.686 169.828 164.066 157.058C177.286 139.058 176.286 136.058 164.986 111.758C156.176 92.8583 132.146 54.7583 116.086 38.9583C98.9057 21.9883 98.9057 24.9883 87.8357 29.5883C78.8234 33.3802 70.1773 37.9894 62.0057 43.3583C46.0057 53.9883 37.1257 62.8183 30.9157 76.0883C24.7057 89.3583 21.9157 120.468 53.9857 178.728C86.0557 236.988 108.556 266.778 155.126 313.218C201.696 359.658 237.506 384.628 289.856 413.988C354.616 450.258 379.456 443.188 392.766 436.988C406.076 430.788 414.946 421.988 425.596 405.988C430.978 397.83 435.598 389.194 439.396 380.188C444.006 369.158 447.006 369.158 430.006 351.988Z" stroke="#27374D" stroke-width="52" stroke-miterlimit="10"/>
</svg>
